# xmcd
#
# Track frame offsets:
#	150
#	2920
#	15129
#	28607
#	43854
#	61775
#	76336
#	90702
#	101478
#	107585
#	123401
#	140007
#	155872
#	162090
#	173945
#	177085
#	192402
#
# Disc length: 2662 seconds
#
# Revision: 1
# Processed by: cddbd v1.5.2PL0 Copyright (c) Steve Scherf et al.
# Submitted via: audiograbber 1.83.01
#
DISCID=d40a6411
DTITLE=Newton Faulkner - Hand Built By Robots
DYEAR=2007
DGENRE=Singer/Songwriter
TTITLE0=Newton Faulkner - Intro
TTITLE1=Newton Faulkner - To the Light
TTITLE2=Newton Faulkner - I Need Something
TTITLE3=Newton Faulkner - All I Got
TTITLE4=Newton Faulkner - Dream Catch Me
TTITLE5=Newton Faulkner - Feels Like Home
TTITLE6=Newton Faulkner - Teardrop
TTITLE7=Newton Faulkner - Gone In the Morning
TTITLE8=Newton Faulkner - Sitar-y Thing (Interlude)
TTITLE9=Newton Faulkner - Uncomfortably Slow
TTITLE10=Newton Faulkner - Straight Towards the Sun
TTITLE11=Newton Faulkner - People Should Smile More
TTITLE12=Newton Faulkner - She's Got the Time (Interlude)
TTITLE13=Newton Faulkner - Ufo
TTITLE14=Newton Faulkner - Face (Her) [Interlude]
TTITLE15=Newton Faulkner - Ageing Superhero
TTITLE16=Newton Faulkner - Lullaby
EXTD=
EXTT0=
EXTT1=
EXTT2=
EXTT3=
EXTT4=
EXTT5=
EXTT6=
EXTT7=
EXTT8=
EXTT9=
EXTT10=
EXTT11=
EXTT12=
EXTT13=
EXTT14=
EXTT15=
EXTT16=
PLAYORDER=
